<?xml version="1.0" encoding="utf-8"?>
<!-- Generator: Adobe Illustrator 17.1.0, SVG Export Plug-In . SVG Version: 6.00 Build 0)  -->
<!DOCTYPE svg PUBLIC "-//W3C//DTD SVG 1.1//EN" "http://www.w3.org/Graphics/SVG/1.1/DTD/svg11.dtd">
<svg version="1.1" id="Layer_1" xmlns="http://www.w3.org/2000/svg" xmlns:xlink="http://www.w3.org/1999/xlink" x="0px" y="0px"
	 viewBox="0 0 300 300" enable-background="new 0 0 300 300" xml:space="preserve">
<g fill="#2C3E50">
	<path fill="#2C3E50" d="M259.876,89.603c9.186-9.181,9.186-24.07,0-33.25c-9.185-9.186-24.065-9.186-33.25,0l-19.178,19.105
		c-9.471-5.672-19.775-10.031-30.733-12.832v-14.2h12.198c6.576,0,11.903-5.332,11.903-11.908V21.821
		c0-6.576-5.327-11.908-11.903-11.908h-82.005c-6.576,0-11.903,5.332-11.903,11.908v14.696c0,6.576,5.327,11.908,11.903,11.908
		h13.374v13.897c-50.857,12.45-88.765,58.292-88.765,112.939c0,64.18,52.218,116.393,116.394,116.393
		c64.175,0,116.393-52.213,116.393-116.393c0-25.36-8.257-48.773-22.081-67.914L259.876,89.603z M147.911,263.439
		c-48.616,0-88.177-39.556-88.177-88.177c0-48.622,39.56-88.176,88.177-88.176c48.615,0,88.176,39.555,88.176,88.176
		C236.087,223.883,196.526,263.439,147.911,263.439z"/>
	<path fill="white" d="M147.911,104.555c-7.789,0-14.108,6.315-14.108,14.108v56.598c0,7.794,6.319,14.108,14.108,14.108
		c7.788,0,14.108-6.315,14.108-14.108v-56.598C162.02,110.87,155.699,104.555,147.911,104.555z"/>
</g>
</svg>
